<svg id="Capa_1" enable-background="new 0 0 512.004 512.004" height="512" viewBox="0 0 512.004 512.004" width="512" xmlns="http://www.w3.org/2000/svg"><g><g><path d="m91.002 316h330v-241h-330zm229.395-154.395c-5.859-5.859-5.859-15.352 0-21.211s15.352-5.859 21.211 0l45 45c5.859 5.859 5.859 15.352 0 21.211l-45 45c-5.859 5.859-15.352 5.859-21.211 0s-5.859-15.352 0-21.211l34.394-34.394zm-108.326 103.829 60-150c3.062-7.72 11.836-11.426 19.497-8.364 7.69 3.076 11.44 11.807 8.364 19.497l-60 150c-3.109 7.793-11.953 11.406-19.497 8.364-7.69-3.077-11.44-11.807-8.364-19.497zm-86.674-80.039 45-45c5.859-5.859 15.352-5.859 21.211 0s5.859 15.352 0 21.211l-34.395 34.394 34.395 34.395c5.859 5.859 5.859 15.352 0 21.211s-15.352 5.859-21.211 0l-45-45c-5.86-5.86-5.86-15.352 0-21.211z"/><path d="m497.002 0h-482c-8.291 0-15 6.709-15 15v362c0 8.291 6.709 15 15 15h482c8.291 0 15-6.709 15-15v-362c0-8.291-6.709-15-15-15zm-46 331c0 8.291-6.709 15-15 15h-360c-8.291 0-15-6.709-15-15v-271c0-8.291 6.709-15 15-15h360c8.291 0 15 6.709 15 15z"/></g><path d="m211.002 422v34.189l-79.746 26.587c-7.852 2.607-12.1 11.104-9.478 18.97 2.604 7.811 11.058 12.114 18.97 9.478l87.671-29.224h55.151l87.686 29.224c7.91 2.637 16.348-1.626 18.97-9.478 2.622-7.866-1.626-16.362-9.478-18.97l-79.761-26.587.015-34.189z"/></g></svg>